<?xml version="1.0" encoding="utf-8"?>
<!-- Generator: Adobe Illustrator 27.0.0, SVG Export Plug-In . SVG Version: 6.00 Build 0)  -->
<svg version="1.1" id="_x30_3030b4a-9996-4111-83fa-29dc66776d7b"
	 xmlns="http://www.w3.org/2000/svg" xmlns:xlink="http://www.w3.org/1999/xlink" x="0px" y="0px" width="1000.8px"
	 height="738.8px" viewBox="0 0 1000.8 738.8" style="enable-background:new 0 0 1000.8 738.8;" xml:space="preserve">
<style type="text/css">
	.st0{opacity:0.1;fill:#361CC1;enable-background:new    ;}
	.st1{fill:#FF0000;}
	.st2{fill-rule:evenodd;clip-rule:evenodd;fill:#D6D6D6;}
	.st3{fill-rule:evenodd;clip-rule:evenodd;fill:url(#SVGID_1_);}
	.st4{fill-rule:evenodd;clip-rule:evenodd;fill:url(#SVGID_00000032626354349854604250000004994683608205898930_);}
	.st5{fill:#FFFFFF;}
	.st6{clip-path:url(#SVGID_00000181077268256413755940000018005238329422471836_);fill:#D6D6D6;}
	
		.st7{clip-path:url(#SVGID_00000121995847355831773060000006336911707993932195_);fill-rule:evenodd;clip-rule:evenodd;fill:#FFFFFF;}
</style>
<path class="st0" d="M27.7,463.9c-12,2-27,7.5-26.9,20.5c0.1,6.6,4.4,12.2,8.7,17c18.1,20.6,38.7,38.8,61.3,54.2
	c10.8,7.3,22.4,14.3,29.6,25.7s9,25.8,9.6,39.5c1.4,32.5-2.4,65-11.3,96.2c35.2,6.7,74.5,12.6,103.9-8.6
	c17.6-12.7,29.5-34,49.1-42.8c13.1-5.9,27.9-5.4,42.1-4.6c67.5,3.6,134.8,10.2,202,20c28.1,4.1,56.8,8.7,84.6,3.4
	s55.2-22.6,65.5-50.6c1.6-4.3,3-9.1,6.5-11.7c3.2-2.3,7.4-2.3,11.3-2.1l235.1,8.1c12.9,0.4,26.2,0.8,38-4.5
	c11.4-5.1,20.2-15,28.7-24.7c19.3-22.1,40.2-49.2,34.5-79.1c-4.6-24-24.9-40.8-45.1-52.5s-42.4-21.3-57.2-40.1
	c-22.5-28.6-21.7-69.5-23.1-106.5c-1.3-33.6-5.4-67-12.3-99.8c-6.1-28.9-14.6-57.8-30.5-82.2S791.4,94.6,763.9,91
	c-35.9-4.7-72.1,17.7-107.2,8.2c-29.7-8-50.1-36.4-74.8-56.1c-43.7-35-101.1-42.3-155.3-43c-57.5-0.7-116.5,5.1-167.8,32.1
	c-11.7,6.2-23.2,13.7-31.4,24.6C215,73.5,212,96,203.8,115.6C171,194.4,64.2,211.4,29.5,289.4c-12.3,27.7-12.2,59.9-3.2,89
	c9.6,31.3,36.8,48.5,47.6,75.8C62.3,461.7,41.7,461.6,27.7,463.9z"/>
<g>
	<path id="path7429" class="st1" d="M832,181.9c-8-29.6-31.4-53-61-61C716.9,106,500.4,106,500.4,106s-216.5,0-270.6,14.2
		c-29.1,8-53,31.9-61,61.5c-14.2,54.2-14.2,166.4-14.2,166.4s0,112.8,14.2,166.4c8,29.6,31.4,53,61,61
		c54.7,14.8,270.6,14.8,270.6,14.8s216.5,0,270.6-14.2c29.6-8,53-31.4,61-61c14.2-54.2,14.2-166.5,14.2-166.5S846.8,236,832,181.9
		L832,181.9z"/>
	<path class="st2" d="M677.8,346.2h-48.7l0.1,104.3h-49.7V346.2h-48.4v-48.4h48.4v-65.6h49.7v65.6h48.7L677.8,346.2L677.8,346.2z"/>
	<g>
		<g>
			<g>
				
					<linearGradient id="SVGID_1_" gradientUnits="userSpaceOnUse" x1="925.8842" y1="745.0315" x2="933.0933" y2="641.9367" gradientTransform="matrix(-1 0 0 -1 1614.0703 737.0109)">
					<stop  offset="0" style="stop-color:#BFA37A"/>
					<stop  offset="1" style="stop-color:#BB8D45"/>
				</linearGradient>
				<path class="st3" d="M728.5,48.6l-42.2,41.7c0,0,58.6,0,74.7,0c3.7,0,5-5.6,5-5.7C770.8,54.9,779.7,0,779.7,0L728.5,48.6z
					 M639.3,0l-50.1,90.3c0,0,58.6,0,74.7,0c3.7,0,6.2-5.6,6.2-5.7C681.3,54.9,702.1,0,702.1,0L639.3,0z"/>
			</g>
		</g>
		<g>
			<g>
				
					<linearGradient id="SVGID_00000039854853174570935970000006989886859191550359_" gradientUnits="userSpaceOnUse" x1="653.7811" y1="745.0364" x2="660.9899" y2="641.9468" gradientTransform="matrix(1 0 0 -1 0 737.0109)">
					<stop  offset="0" style="stop-color:#FFE79C"/>
					<stop  offset="1" style="stop-color:#FFD453"/>
				</linearGradient>
				<path style="fill-rule:evenodd;clip-rule:evenodd;fill:url(#SVGID_00000039854853174570935970000006989886859191550359_);" d="
					M562.3,0c0,0,9,54.9,13.8,84.6c0,0.1,1.3,5.7,5,5.7c16.1,0,74.7,0,74.7,0l-42.2-41.7L562.3,0z M702.6,0h-62.8
					c0,0,20.8,54.9,32.1,84.6c0,0.1,2.5,5.7,6.2,5.7c16.1,0,74.7,0,74.7,0L702.6,0z"/>
			</g>
		</g>
	</g>
	<g>
		<path id="polygon7431" class="st5" d="M323,244.5v207.4l201.7-103.7L323,244.5z"/>
		<g>
			<g>
				<defs>
					<polygon id="SVGID_00000169521059939294170920000016431446816492295825_" points="323,244.5 323,451.9 524.6,348.3 					"/>
				</defs>
				<clipPath id="SVGID_00000023985271359583765930000007253888612664859061_">
					<use xlink:href="#SVGID_00000169521059939294170920000016431446816492295825_"  style="overflow:visible;"/>
				</clipPath>
				
					<path id="polygon7431_00000032633405490610877080000009562607870999641989_" style="clip-path:url(#SVGID_00000023985271359583765930000007253888612664859061_);fill:#D6D6D6;" d="
					M323,244.5l196.2,126.5l5.4-22.8L323,244.5z"/>
			</g>
		</g>
	</g>
	<g>
		<g>
			<defs>
				<polygon id="SVGID_00000029036607270261082970000004825506196424317607_" points="670.9,353.1 629.1,346.2 622.2,353.1 
					622.3,457.4 572.6,457.4 572.6,353.1 524.2,353.1 524.2,304.7 572.6,304.7 579.5,297.8 572.6,239 622.3,239 622.3,304.7 
					671,304.7 671,353.1 				"/>
			</defs>
			<clipPath id="SVGID_00000064351442549450247100000013616587290714386097_">
				<use xlink:href="#SVGID_00000029036607270261082970000004825506196424317607_"  style="overflow:visible;"/>
			</clipPath>
			
				<path style="clip-path:url(#SVGID_00000064351442549450247100000013616587290714386097_);fill-rule:evenodd;clip-rule:evenodd;fill:#FFFFFF;" d="
				M677.8,346.2h-48.7l0.1,104.3h-49.7V346.2h-48.4v-48.4h48.4v-65.6h49.7v65.6h48.7L677.8,346.2L677.8,346.2z"/>
		</g>
	</g>
</g>
</svg>
