<?xml version="1.0" encoding="utf-8"?>
<!-- Generator: Adobe Illustrator 27.0.0, SVG Export Plug-In . SVG Version: 6.00 Build 0)  -->
<svg version="1.1" id="Layer_1" xmlns="http://www.w3.org/2000/svg" xmlns:xlink="http://www.w3.org/1999/xlink" x="0px" y="0px"
	 width="112.2px" height="29px" viewBox="0 0 112.2 29" enable-background="new 0 0 112.2 29" xml:space="preserve">
<g>
	<path fill="#2E2E2E" d="M42,17.2c0.1,0.6,0.3,1.1,0.5,1.4c0.5,0.6,1.3,0.8,2.4,0.8c0.7,0,1.3-0.1,1.7-0.2c0.8-0.3,1.2-0.8,1.2-1.6
		c0-0.5-0.2-0.8-0.6-1.1c-0.4-0.2-1-0.5-1.9-0.6l-1.5-0.3c-1.5-0.3-2.5-0.7-3-1.1c-0.9-0.6-1.4-1.6-1.4-3c0-1.2,0.5-2.3,1.4-3.1
		s2.2-1.2,4-1.2c1.5,0,2.7,0.4,3.8,1.2c1,0.8,1.6,1.9,1.6,3.3h-2.8c-0.1-0.8-0.4-1.4-1.1-1.8c-0.5-0.2-1-0.3-1.7-0.3
		c-0.8,0-1.4,0.1-1.8,0.4c-0.5,0.3-0.7,0.7-0.7,1.3c0,0.5,0.2,0.9,0.7,1.1c0.3,0.2,0.9,0.4,1.8,0.6l2.4,0.6c1.1,0.2,1.8,0.6,2.4,1
		c0.8,0.6,1.2,1.6,1.2,2.8c0,1.3-0.5,2.3-1.5,3.1c-1,0.8-2.3,1.2-4.1,1.2c-1.8,0-3.2-0.4-4.3-1.2c-1-0.8-1.6-1.9-1.6-3.4H42z"/>
	<path fill="#2E2E2E" d="M62.7,7.7v2.4h-4.1v11.3h-2.9V10.1h-4.1V7.7H62.7z"/>
	<path fill="#2E2E2E" d="M64.4,7.7h2.9v8.4c0,0.9,0.1,1.6,0.3,2.1c0.3,0.8,1.1,1.2,2.3,1.2c1.2,0,1.9-0.4,2.3-1.2
		c0.2-0.4,0.3-1.1,0.3-2.1V7.7h2.9v8.4c0,1.5-0.2,2.6-0.7,3.4c-0.8,1.5-2.5,2.2-4.8,2.2s-4-0.7-4.8-2.2c-0.5-0.8-0.7-2-0.7-3.4V7.7z
		"/>
	<path fill="#2E2E2E" d="M78.2,7.7H88v2.4H81v3.2h6.1v2.4H81v5.8h-2.9V7.7z"/>
	<path fill="#2E2E2E" d="M89.8,7.7h9.8v2.4h-6.9v3.2h6.1v2.4h-6.1v5.8h-2.9V7.7z"/>
	<path fill="#2E2E2E" d="M103.6,17.2c0.1,0.6,0.3,1.1,0.5,1.4c0.5,0.6,1.3,0.8,2.4,0.8c0.7,0,1.3-0.1,1.7-0.2
		c0.8-0.3,1.2-0.8,1.2-1.6c0-0.5-0.2-0.8-0.6-1.1c-0.4-0.2-1-0.5-1.9-0.6l-1.5-0.3c-1.5-0.3-2.5-0.7-3-1.1c-0.9-0.6-1.4-1.6-1.4-3
		c0-1.2,0.5-2.3,1.4-3.1s2.2-1.2,4-1.2c1.5,0,2.7,0.4,3.8,1.2c1,0.8,1.6,1.9,1.6,3.3H109c-0.1-0.8-0.4-1.4-1.1-1.8
		c-0.5-0.2-1-0.3-1.7-0.3c-0.8,0-1.4,0.1-1.8,0.4c-0.5,0.3-0.7,0.7-0.7,1.3c0,0.5,0.2,0.9,0.7,1.1c0.3,0.2,0.9,0.4,1.8,0.6l2.4,0.6
		c1.1,0.2,1.9,0.6,2.4,1c0.8,0.6,1.2,1.6,1.2,2.8c0,1.3-0.5,2.3-1.5,3.1c-1,0.8-2.3,1.2-4.1,1.2c-1.8,0-3.2-0.4-4.3-1.2
		c-1-0.8-1.6-1.9-1.6-3.4H103.6z"/>
</g>
<g>
	<linearGradient id="SVGID_1_" gradientUnits="userSpaceOnUse" x1="7.0835" y1="14.5054" x2="21.2505" y2="14.5054">
		<stop  offset="0" style="stop-color:#FE8464"/>
		<stop  offset="1" style="stop-color:#FE6E9A"/>
	</linearGradient>
	<polygon fill="url(#SVGID_1_)" points="14.2,19.3 14.2,19.3 14.2,19.3 21.3,14.5 14.2,9.7 7.1,14.5 	"/>
	<g>
		<polygon fill="#161616" points="14.2,0 14.2,9.7 14.2,9.7 0,19.3 0,9.7 14.2,0 14.2,0 		"/>
	</g>
	<g>
		<polygon fill="#161616" points="28.3,19.3 28.3,9.7 28.3,9.7 14.2,0 14.2,9.7 28.3,19.3 28.3,19.3 		"/>
	</g>
	<g>
		<polygon fill="#2E2E2E" points="14.2,29 14.2,19.3 14.2,19.3 0,9.7 0,19.3 14.2,29 14.2,29 		"/>
	</g>
	<g>
		<polygon fill="#212121" points="28.3,9.7 28.3,19.3 28.3,19.3 14.2,29 14.2,19.3 28.3,9.7 28.3,9.7 		"/>
	</g>
</g>
</svg>
