<?xml version="1.0" encoding="utf-8"?>
<!-- Generator: Adobe Illustrator 27.0.0, SVG Export Plug-In . SVG Version: 6.00 Build 0)  -->
<svg version="1.1" id="lni_lni-cog" xmlns="http://www.w3.org/2000/svg" xmlns:xlink="http://www.w3.org/1999/xlink" x="0px"
	 y="0px" width="48px" height="51.2px" viewBox="0 0 48 51.2" style="enable-background:new 0 0 48 51.2;" xml:space="preserve">
<g>
	<path d="M19,51.2L0,0h8.1l9.1,25.2c2.5,6.9,4.7,13.1,6.2,19.1h0.2c1.6-5.9,4.1-12.4,6.6-19.1L40,0h8L27.2,51.2H19z"/>
</g>
<g>
	<path d="M36,5.3l-9,20c-0.6,1.3-1.9,2.2-3.4,2.2h0c-1.5,0-2.9-0.9-3.5-2.3l-8.2-20c-1-2.5,0.8-5.2,3.5-5.2h17.2
		C35.3,0,37.2,2.8,36,5.3z"/>
</g>
</svg>
